<?xml version="1.0" encoding="UTF-8"?>
<svg width="231px" height="54px" viewBox="0 0 231 54" version="1.1" xmlns="http://www.w3.org/2000/svg" xmlns:xlink="http://www.w3.org/1999/xlink">
    <title>Group 34</title>
    <defs>
        <polygon id="path-1" points="0 20.74097 20.9134252 0 25.107894 7.56553765 9.80720121 22.8234429 10.6663358 24.2797052 23.1000401 12.0125264 21.8996164 17.447757 24.6124938 22.1966368 4.90931213 41.7486998 0.702819025 34.1853454 5.10450624 29.7314098"></polygon>
        <linearGradient x1="44.7656972%" y1="26.6313309%" x2="63.9683587%" y2="104.81121%" id="linearGradient-3">
            <stop stop-color="#3DDB83" offset="0%"></stop>
            <stop stop-color="#4285F4" offset="100%"></stop>
        </linearGradient>
        <polygon id="path-4" points="0 8.82768456 8.85608085 0 13.0864221 7.55382721 6.66946597 13.9044567 3.77542276 8.74035249"></polygon>
        <linearGradient x1="-25.5274909%" y1="-137.582576%" x2="64.7022951%" y2="97.1557082%" id="linearGradient-6">
            <stop stop-color="#3DDB83" offset="0%"></stop>
            <stop stop-color="#4285F4" offset="100%"></stop>
        </linearGradient>
        <polygon id="path-7" points="0 54 231 54 231 0 0 0"></polygon>
        <path d="M5.69584206e-15,0 L5.69584206e-15,4.70402294 L177.62844,4.70402294 C177.900991,3.42182934 178.550302,2.28869572 179.566553,1.32188999 L179.566553,1.32188999 L179.570562,1.31792035 L179.570562,0 L5.69584206e-15,0 Z" id="path-9"></path>
        <linearGradient x1="34.5659191%" y1="49.5928204%" x2="71.4538935%" y2="50.5659981%" id="linearGradient-11">
            <stop stop-color="#3DDB83" offset="0%"></stop>
            <stop stop-color="#4285F4" offset="100%"></stop>
        </linearGradient>
        <path d="M1.13555204,0.143502472 C0.909696029,0.201657692 0.697267125,0.293157885 0.45878562,0.401330564 L0.45878562,0.401330564 C0.616303656,0.48310514 0.776026143,0.474967379 0.916108977,0.529946888 L0.916108977,0.529946888 C1.06200355,0.587506662 1.2072969,0.64447099 1.34477447,0.719695661 L1.34477447,0.719695661 C1.48245245,0.794920332 1.61191384,0.882252403 1.73496228,0.979111609 L1.73496228,0.979111609 C1.85801072,1.0761693 1.97244176,1.18196019 2.08005905,1.29549189 L2.08005905,1.29549189 C2.18767633,1.40902358 2.28647581,1.52930366 2.37886235,1.65533972 L2.37886235,1.65533972 C2.47104847,1.78137577 2.55481761,1.91277085 2.63016975,2.04912797 L2.63016975,2.04912797 C2.70572229,2.18548509 2.77426067,2.3252164 2.83137599,2.47030673 L2.83137599,2.47030673 C2.8880905,2.61440465 2.94961472,2.75711319 2.9746653,2.918876 L2.9746653,2.918876 C2.99831305,2.93177733 3.0265701,2.94706045 3.05482715,2.96254204 L3.05482715,2.96254204 C3.26004149,3.07250106 3.43860201,3.21421719 3.59070912,3.39027071 L3.59070912,3.39027071 C4.00434427,3.86881076 4.00514589,4.5160605 3.58469698,4.98606583 L3.58469698,4.98606583 C3.31435114,5.2881554 2.96264102,5.44555161 2.56864553,5.52037932 L2.56864553,5.52037932 C2.35842107,5.5602742 2.14639298,5.56563321 1.93777176,5.54737287 L1.93777176,5.54737287 C1.86001477,5.64998805 1.75600477,5.71429622 1.66902916,5.7970632 L1.66902916,5.7970632 C0.692858223,6.72595887 0.121705038,7.8491684 0.013887349,9.19229596 L0.013887349,9.19229596 C-0.0424263511,9.89591458 0.0704014536,10.5709518 0.391249261,11.2066896 L0.391249261,11.2066896 C0.406480012,11.2366604 0.410488105,11.2755628 0.474617585,11.3033503 L0.474617585,11.3033503 C0.504878684,11.1211438 0.510690418,10.9403268 0.565400881,10.7698307 L0.565400881,10.7698307 C0.621113367,10.596159 0.691655796,10.4294341 0.780234641,10.2698546 L0.780234641,10.2698546 C0.870617127,10.1074964 0.97643077,9.95565766 1.09587193,9.81334608 L1.09587193,9.81334608 C1.21350944,9.67341628 1.34297083,9.54519692 1.48225205,9.42590925 L1.48225205,9.42590925 C1.62413852,9.30443828 1.77704725,9.19944131 1.93837298,9.10635326 L1.93837298,9.10635326 C2.09729385,9.0144561 2.26483211,8.94042233 2.44038657,8.8856413 L2.44038657,8.8856413 C2.61834587,8.82986786 2.80071408,8.79513352 2.9874912,8.79036995 L2.9874912,8.79036995 C3.1564323,8.53353427 3.3558349,8.31202838 3.61074959,8.14232628 L3.61074959,8.14232628 C4.10755265,7.81185378 4.68852567,7.84857295 5.08973573,8.24950655 L5.08973573,8.24950655 C5.52260972,8.68180031 5.64966625,9.23119843 5.68433626,9.83498061 L5.68433626,9.83498061 C5.79636244,10.0346535 5.9420566,10.2380975 6.11620823,10.4191131 L6.11620823,10.4191131 C7.06151685,11.4017974 8.23588796,11.8390532 9.59062323,11.8301215 L9.59062323,11.8301215 C10.2728006,11.8255564 10.9098869,11.6407697 11.5064915,11.3152592 L11.5064915,11.3152592 C11.5489772,11.2920368 11.5583963,11.2652418 11.5419631,11.2428133 L11.5419631,11.2428133 C10.8657979,11.1663977 10.3112783,10.8853473 9.84734156,10.4260599 L9.84734156,10.4260599 C9.38160121,9.96458934 9.10784849,9.39990811 8.97097213,8.75245989 L8.97097213,8.75245989 C8.91646207,8.76278095 8.88359571,8.73677981 8.8485249,8.71574072 L8.8485249,8.71574072 C8.64611623,8.59367431 8.4715638,8.44104166 8.33588987,8.24851414 L8.33588987,8.24851414 C8.0861857,7.8932314 7.98237611,7.50242038 8.11023426,7.08124162 L8.11023426,7.08124162 C8.27456605,6.53958429 8.67757976,6.25773988 9.21967427,6.14936872 L9.21967427,6.14936872 C9.43410722,6.10649661 9.64954219,6.11939794 9.85074844,6.15651407 L9.85074844,6.15651407 C9.89543867,6.13646739 9.92650139,6.11999338 9.95956815,6.10828295 L9.95956815,6.10828295 C10.3146852,5.981056 10.6174965,5.77542867 10.8748161,5.50390532 L10.8748161,5.50390532 C11.4251272,4.92334552 11.7010844,4.21476485 11.8407664,3.4454487 L11.8407664,3.4454487 C11.9127116,3.04908018 11.9311489,2.64834506 11.908904,2.24582361 L11.908904,2.24582361 C11.8756368,1.63807178 11.7515863,1.04977119 11.5197182,0.48508996 L11.5197182,0.48508996 C11.5058903,0.451348023 11.505289,0.398353335 11.435949,0.408674398 L11.435949,0.408674398 C11.4199167,0.462463014 11.3996758,0.517641005 11.3874511,0.574208369 L11.3874511,0.574208369 C11.3187123,0.894359804 11.2088906,1.20002205 11.051573,1.48742396 L11.051573,1.48742396 C10.6026666,2.30715454 9.93010867,2.79542021 8.97097213,2.8539724 L8.97097213,2.8539724 C8.93269485,2.85635418 8.89401675,2.85754507 8.85533866,2.87997354 L8.85533866,2.87997354 C8.84371519,2.89902781 8.83008768,2.92165475 8.81646016,2.94408322 L8.81646016,2.94408322 C8.60383085,3.29063275 8.31524819,3.54945326 7.92966969,3.69632992 L7.92966969,3.69632992 C7.3541076,3.91525555 6.74828442,3.74575193 6.41741638,3.25966956 L6.41741638,3.25966956 C6.15709077,2.87699631 6.11821227,2.45323728 6.22723239,2.01221032 L6.22723239,2.01221032 C6.244868,1.94115377 6.2494773,1.87664712 6.22522834,1.80658299 L6.22522834,1.80658299 C6.16570817,1.63509455 6.07512528,1.48166798 5.9592914,1.34253212 L5.9592914,1.34253212 C5.67692128,1.00292945 5.31639336,0.764354107 4.92199706,0.574406851 L4.92199706,0.574406851 C4.17428739,0.213765093 3.38108588,0.0353297925 2.55141073,0.00436660357 L2.55141073,0.00436660357 C2.4764594,0.00158785584 2.40170847,0 2.32715795,0 L2.32715795,0 C1.92494587,0 1.52754349,0.0424751438 1.13555204,0.143502472 M5.22841573,5.9149615 C5.21779428,5.8566078 5.21879631,5.79845258 5.22440764,5.74009887 L5.22440764,5.74009887 C5.2530655,5.49894327 5.43563411,5.30125521 5.69155082,5.23396982 L5.69155082,5.23396982 C6.02542493,5.14624079 6.38915933,5.30304155 6.53264904,5.59679488 L6.53264904,5.59679488 C6.68535736,5.90920552 6.55489395,6.26349586 6.23424655,6.40560895 L6.23424655,6.40560895 C6.13785193,6.44828258 6.03684799,6.46813078 5.9374473,6.46813078 L5.9374473,6.46813078 C5.603974,6.46813078 5.28853712,6.24503703 5.22841573,5.9149615" id="path-12"></path>
        <linearGradient x1="16.906271%" y1="68.6386126%" x2="97.6122299%" y2="22.3086077%" id="linearGradient-14">
            <stop stop-color="#3DDB83" offset="0%"></stop>
            <stop stop-color="#4285F4" offset="100%"></stop>
        </linearGradient>
    </defs>
    <g id="Brand-Identity" stroke="none" stroke-width="1" fill="none" fill-rule="evenodd">
        <g id="Dark-Mode-Splash" transform="translate(-99, -439)">
            <g id="Group-34" transform="translate(99, 439)">
                <g id="Group-4" transform="translate(2.3876, 3.7678)">
                    <mask id="mask-2" fill="white">
                        <use xlink:href="#path-1"></use>
                    </mask>
                    <g id="Clip-3"></g>
                    <polygon id="Fill-2" fill="url(#linearGradient-3)" mask="url(#mask-2)" points="0 20.74097 20.9134252 0 25.107894 7.56553765 9.80720121 22.8234429 10.6663358 24.2797052 23.1000401 12.0125264 21.8996164 17.447757 24.6124938 22.1966368 4.90931213 41.7486998 0.702819025 34.1853454 5.10450624 29.7314098"></polygon>
                </g>
                <g id="Group-7" transform="translate(10.1527, 36.3278)">
                    <mask id="mask-5" fill="white">
                        <use xlink:href="#path-4"></use>
                    </mask>
                    <g id="Clip-6"></g>
                    <polygon id="Fill-5" fill="url(#linearGradient-6)" mask="url(#mask-5)" points="0 8.82768456 8.85608085 0 13.0864221 7.55382721 6.66946597 13.9044567 3.77542276 8.74035249"></polygon>
                </g>
                <polygon id="Fill-8" fill="#FFFFFF" points="35.5442656 13.6019503 47.8507129 13.6019503 47.8507129 17.0245735 39.4778076 17.0245735 39.4778076 23.2858861 47.0921814 23.2858861 47.0921814 26.7640843 39.4778076 26.7640843 39.4778076 32.5244284 35.5442656 32.5244284"></polygon>
                <polygon id="Fill-9" fill="#FFFFFF" points="51.1650046 13.6019503 55.0985466 13.6019503 55.0985466 29.1016066 63.7524192 29.1016066 63.7524192 32.5244284 51.1650046 32.5244284"></polygon>
                <g id="Group-27">
                    <path d="M66.1395188,25.6788841 L66.1395188,13.601851 L70.0730608,13.601851 L70.0730608,25.4563858 C70.0730608,28.2111172 71.2813003,29.2686292 73.8943763,29.2686292 C76.4791951,29.2686292 77.6591776,28.2111172 77.6591776,25.4563858 L77.6591776,13.601851 L81.5927196,13.601851 L81.5927196,25.6788841 C81.5927196,30.465277 78.2491688,32.7748134 73.8943763,32.7748134 C69.4830696,32.7748134 66.1395188,30.465277 66.1395188,25.6788841" id="Fill-10" fill="#FFFFFF"></path>
                    <polygon id="Fill-12" fill="#FFFFFF" points="89.8517349 17.0245934 84.4009295 17.0245934 84.4009295 13.6019701 99.2360824 13.6019701 99.2360824 17.0245934 93.7852769 17.0245934 93.7852769 32.5244482 89.8517349 32.5244482"></polygon>
                    <polygon id="Fill-14" fill="#FFFFFF" points="106.764503 17.0245934 101.313697 17.0245934 101.313697 13.6019701 116.14885 13.6019701 116.14885 17.0245934 110.698045 17.0245934 110.698045 32.5244482 106.764503 32.5244482"></polygon>
                    <polygon id="Fill-16" fill="#FFFFFF" points="119.041571 13.6019503 131.685098 13.6019503 131.685098 17.0245735 122.975113 17.0245735 122.975113 23.0354018 130.6456 23.0354018 130.6456 26.3746627 122.975113 26.3746627 122.975113 29.1016066 132.078493 29.1016066 132.078493 32.5244284 119.041571 32.5244284"></polygon>
                    <path d="M140.899523,24.4267407 C144.10259,24.4267407 145.507426,23.4250021 145.507426,20.7534347 C145.507426,18.0820657 144.046477,17.0245537 140.899523,17.0245537 L139.663427,17.0245537 L139.663427,24.4267407 L140.899523,24.4267407 Z M149.834363,32.5244085 L145.282572,32.5244085 L142.135819,27.738214 C141.770682,27.793789 141.377087,27.8215765 141.01195,27.8215765 L139.663427,27.8215765 L139.663427,32.5244085 L135.729685,32.5244085 L135.729685,13.6019304 L141.01195,13.6019304 C146.350529,13.6019304 149.553596,16.1341635 149.553596,20.7534347 C149.553596,23.7030754 148.232929,25.5676151 145.872964,26.6249286 L149.834363,32.5244085 Z" id="Fill-18" fill="#FFFFFF"></path>
                    <path d="M156.660705,19.3621157 C156.127028,18.7220113 155.340039,17.6089243 155.340039,17.6089243 C155.340039,17.6089243 155.50878,18.9447081 155.50878,19.7517358 L155.50878,32.5244482 L153.598322,32.5244482 L153.598322,13.4070608 L153.935203,13.4070608 L165.342635,26.7641042 C165.876513,27.4042086 166.663301,28.5172955 166.663301,28.5172955 C166.663301,28.5172955 166.522617,27.1815118 166.522617,26.374484 L166.522617,13.6019701 L168.405419,13.6019701 L168.405419,32.719159 L168.068138,32.719159 L156.660705,19.3621157 Z" id="Fill-20" fill="#FFFFFF"></path>
                    <mask id="mask-8" fill="white">
                        <use xlink:href="#path-7"></use>
                    </mask>
                    <g id="Clip-23"></g>
                    <polygon id="Fill-22" fill="#FFFFFF" mask="url(#mask-8)" points="173.714137 32.5244482 175.765078 32.5244482 175.765078 13.6019701 173.714137 13.6019701"></polygon>
                    <path d="M184.137563,19.3621157 C183.603885,18.7220113 182.816896,17.6089243 182.816896,17.6089243 C182.816896,17.6089243 182.985637,18.9447081 182.985637,19.7517358 L182.985637,32.5244482 L181.075179,32.5244482 L181.075179,13.4070608 L181.41206,13.4070608 L192.819492,26.7641042 C193.35337,27.4042086 194.140158,28.5172955 194.140158,28.5172955 C194.140158,28.5172955 193.999474,27.1815118 193.999474,26.374484 L193.999474,13.6019701 L195.882276,13.6019701 L195.882276,32.719159 L195.544995,32.719159 L184.137563,19.3621157 Z" id="Fill-24" fill="#FFFFFF" mask="url(#mask-8)"></path>
                    <path d="M199.42088,29.9086939 L201.078427,28.8791678 C201.809102,30.1311922 202.792488,30.9382199 204.281494,30.9382199 C206.164095,30.9382199 207.428448,29.9086939 207.428448,27.4878092 L207.428448,13.6020098 L209.479389,13.6020098 L209.479389,27.5433841 C209.479389,31.0217808 207.316021,32.7469862 204.365864,32.7469862 C201.809102,32.7469862 200.291839,31.4947634 199.42088,29.9086939" id="Fill-25" fill="#FFFFFF" mask="url(#mask-8)"></path>
                    <path d="M224.453983,27.6268458 L221.082175,19.2229203 C220.717038,18.3325301 220.351901,16.9689589 220.351901,16.9689589 C220.351901,16.9689589 219.958507,18.3325301 219.592969,19.2229203 L216.221562,27.6268458 L224.453983,27.6268458 Z M220.18296,13.4070013 L220.520241,13.4070013 L228.612179,32.5243887 L226.476868,32.5243887 L225.184258,29.3520512 L215.519143,29.3520512 L214.254791,32.5243887 L212.259963,32.5243887 L220.18296,13.4070013 Z" id="Fill-26" fill="#FFFFFF" mask="url(#mask-8)"></path>
                </g>
                <g id="Group-30" transform="translate(35.5452, 38.3376)">
                    <mask id="mask-10" fill="white">
                        <use xlink:href="#path-9"></use>
                    </mask>
                    <g id="Clip-29"></g>
                    <path d="M5.69584206e-15,0 L5.69584206e-15,4.70402294 L177.62844,4.70402294 C177.900991,3.42182934 178.550302,2.28869572 179.566553,1.32188999 L179.566553,1.32188999 L179.570562,1.31792035 L179.570562,0 L5.69584206e-15,0 Z" id="Fill-28" fill="url(#linearGradient-11)" mask="url(#mask-10)"></path>
                </g>
                <g id="Group-33" transform="translate(214.37, 34.8179)">
                    <mask id="mask-13" fill="white">
                        <use xlink:href="#path-12"></use>
                    </mask>
                    <g id="Clip-32"></g>
                    <path d="M1.13555204,0.143502472 C0.909696029,0.201657692 0.697267125,0.293157885 0.45878562,0.401330564 L0.45878562,0.401330564 C0.616303656,0.48310514 0.776026143,0.474967379 0.916108977,0.529946888 L0.916108977,0.529946888 C1.06200355,0.587506662 1.2072969,0.64447099 1.34477447,0.719695661 L1.34477447,0.719695661 C1.48245245,0.794920332 1.61191384,0.882252403 1.73496228,0.979111609 L1.73496228,0.979111609 C1.85801072,1.0761693 1.97244176,1.18196019 2.08005905,1.29549189 L2.08005905,1.29549189 C2.18767633,1.40902358 2.28647581,1.52930366 2.37886235,1.65533972 L2.37886235,1.65533972 C2.47104847,1.78137577 2.55481761,1.91277085 2.63016975,2.04912797 L2.63016975,2.04912797 C2.70572229,2.18548509 2.77426067,2.3252164 2.83137599,2.47030673 L2.83137599,2.47030673 C2.8880905,2.61440465 2.94961472,2.75711319 2.9746653,2.918876 L2.9746653,2.918876 C2.99831305,2.93177733 3.0265701,2.94706045 3.05482715,2.96254204 L3.05482715,2.96254204 C3.26004149,3.07250106 3.43860201,3.21421719 3.59070912,3.39027071 L3.59070912,3.39027071 C4.00434427,3.86881076 4.00514589,4.5160605 3.58469698,4.98606583 L3.58469698,4.98606583 C3.31435114,5.2881554 2.96264102,5.44555161 2.56864553,5.52037932 L2.56864553,5.52037932 C2.35842107,5.5602742 2.14639298,5.56563321 1.93777176,5.54737287 L1.93777176,5.54737287 C1.86001477,5.64998805 1.75600477,5.71429622 1.66902916,5.7970632 L1.66902916,5.7970632 C0.692858223,6.72595887 0.121705038,7.8491684 0.013887349,9.19229596 L0.013887349,9.19229596 C-0.0424263511,9.89591458 0.0704014536,10.5709518 0.391249261,11.2066896 L0.391249261,11.2066896 C0.406480012,11.2366604 0.410488105,11.2755628 0.474617585,11.3033503 L0.474617585,11.3033503 C0.504878684,11.1211438 0.510690418,10.9403268 0.565400881,10.7698307 L0.565400881,10.7698307 C0.621113367,10.596159 0.691655796,10.4294341 0.780234641,10.2698546 L0.780234641,10.2698546 C0.870617127,10.1074964 0.97643077,9.95565766 1.09587193,9.81334608 L1.09587193,9.81334608 C1.21350944,9.67341628 1.34297083,9.54519692 1.48225205,9.42590925 L1.48225205,9.42590925 C1.62413852,9.30443828 1.77704725,9.19944131 1.93837298,9.10635326 L1.93837298,9.10635326 C2.09729385,9.0144561 2.26483211,8.94042233 2.44038657,8.8856413 L2.44038657,8.8856413 C2.61834587,8.82986786 2.80071408,8.79513352 2.9874912,8.79036995 L2.9874912,8.79036995 C3.1564323,8.53353427 3.3558349,8.31202838 3.61074959,8.14232628 L3.61074959,8.14232628 C4.10755265,7.81185378 4.68852567,7.84857295 5.08973573,8.24950655 L5.08973573,8.24950655 C5.52260972,8.68180031 5.64966625,9.23119843 5.68433626,9.83498061 L5.68433626,9.83498061 C5.79636244,10.0346535 5.9420566,10.2380975 6.11620823,10.4191131 L6.11620823,10.4191131 C7.06151685,11.4017974 8.23588796,11.8390532 9.59062323,11.8301215 L9.59062323,11.8301215 C10.2728006,11.8255564 10.9098869,11.6407697 11.5064915,11.3152592 L11.5064915,11.3152592 C11.5489772,11.2920368 11.5583963,11.2652418 11.5419631,11.2428133 L11.5419631,11.2428133 C10.8657979,11.1663977 10.3112783,10.8853473 9.84734156,10.4260599 L9.84734156,10.4260599 C9.38160121,9.96458934 9.10784849,9.39990811 8.97097213,8.75245989 L8.97097213,8.75245989 C8.91646207,8.76278095 8.88359571,8.73677981 8.8485249,8.71574072 L8.8485249,8.71574072 C8.64611623,8.59367431 8.4715638,8.44104166 8.33588987,8.24851414 L8.33588987,8.24851414 C8.0861857,7.8932314 7.98237611,7.50242038 8.11023426,7.08124162 L8.11023426,7.08124162 C8.27456605,6.53958429 8.67757976,6.25773988 9.21967427,6.14936872 L9.21967427,6.14936872 C9.43410722,6.10649661 9.64954219,6.11939794 9.85074844,6.15651407 L9.85074844,6.15651407 C9.89543867,6.13646739 9.92650139,6.11999338 9.95956815,6.10828295 L9.95956815,6.10828295 C10.3146852,5.981056 10.6174965,5.77542867 10.8748161,5.50390532 L10.8748161,5.50390532 C11.4251272,4.92334552 11.7010844,4.21476485 11.8407664,3.4454487 L11.8407664,3.4454487 C11.9127116,3.04908018 11.9311489,2.64834506 11.908904,2.24582361 L11.908904,2.24582361 C11.8756368,1.63807178 11.7515863,1.04977119 11.5197182,0.48508996 L11.5197182,0.48508996 C11.5058903,0.451348023 11.505289,0.398353335 11.435949,0.408674398 L11.435949,0.408674398 C11.4199167,0.462463014 11.3996758,0.517641005 11.3874511,0.574208369 L11.3874511,0.574208369 C11.3187123,0.894359804 11.2088906,1.20002205 11.051573,1.48742396 L11.051573,1.48742396 C10.6026666,2.30715454 9.93010867,2.79542021 8.97097213,2.8539724 L8.97097213,2.8539724 C8.93269485,2.85635418 8.89401675,2.85754507 8.85533866,2.87997354 L8.85533866,2.87997354 C8.84371519,2.89902781 8.83008768,2.92165475 8.81646016,2.94408322 L8.81646016,2.94408322 C8.60383085,3.29063275 8.31524819,3.54945326 7.92966969,3.69632992 L7.92966969,3.69632992 C7.3541076,3.91525555 6.74828442,3.74575193 6.41741638,3.25966956 L6.41741638,3.25966956 C6.15709077,2.87699631 6.11821227,2.45323728 6.22723239,2.01221032 L6.22723239,2.01221032 C6.244868,1.94115377 6.2494773,1.87664712 6.22522834,1.80658299 L6.22522834,1.80658299 C6.16570817,1.63509455 6.07512528,1.48166798 5.9592914,1.34253212 L5.9592914,1.34253212 C5.67692128,1.00292945 5.31639336,0.764354107 4.92199706,0.574406851 L4.92199706,0.574406851 C4.17428739,0.213765093 3.38108588,0.0353297925 2.55141073,0.00436660357 L2.55141073,0.00436660357 C2.4764594,0.00158785584 2.40170847,0 2.32715795,0 L2.32715795,0 C1.92494587,0 1.52754349,0.0424751438 1.13555204,0.143502472 M5.22841573,5.9149615 C5.21779428,5.8566078 5.21879631,5.79845258 5.22440764,5.74009887 L5.22440764,5.74009887 C5.2530655,5.49894327 5.43563411,5.30125521 5.69155082,5.23396982 L5.69155082,5.23396982 C6.02542493,5.14624079 6.38915933,5.30304155 6.53264904,5.59679488 L6.53264904,5.59679488 C6.68535736,5.90920552 6.55489395,6.26349586 6.23424655,6.40560895 L6.23424655,6.40560895 C6.13785193,6.44828258 6.03684799,6.46813078 5.9374473,6.46813078 L5.9374473,6.46813078 C5.603974,6.46813078 5.28853712,6.24503703 5.22841573,5.9149615" id="Fill-31" fill="url(#linearGradient-14)" mask="url(#mask-13)"></path>
                </g>
            </g>
        </g>
    </g>
</svg>