<?xml version="1.0" encoding="UTF-8"?>
<svg width="226px" height="47px" viewBox="0 0 226 47" version="1.1" xmlns="http://www.w3.org/2000/svg" xmlns:xlink="http://www.w3.org/1999/xlink">
    <title>flutterninja logo</title>
    <defs>
        <polygon id="path-1" points="20.8926658 0 0 20.9800384 5.09943934 30.0739046 0.701921177 34.5793788 4.90423878 42.2297105 24.5880626 22.452283 21.8776779 17.6488665 23.0771102 12.1507866 10.6555479 24.5593616 9.79746625 23.0863139 25.0829711 7.65274093"></polygon>
        <linearGradient x1="44.8942862%" y1="26.6310627%" x2="63.6247489%" y2="104.811313%" id="linearGradient-3">
            <stop stop-color="#3DDB83" offset="0%"></stop>
            <stop stop-color="#4285F4" offset="100%"></stop>
        </linearGradient>
        <polygon id="path-4" points="0 8.92923507 3.77167515 8.84109714 6.66284563 14.064524 13.0732319 7.64069475 8.84729 0"></polygon>
        <linearGradient x1="-23.6704432%" y1="-137.585726%" x2="64.3408955%" y2="97.1559097%" id="linearGradient-6">
            <stop stop-color="#3DDB83" offset="0%"></stop>
            <stop stop-color="#4285F4" offset="100%"></stop>
        </linearGradient>
        <polygon id="path-7" points="0 47 226 47 226 0 0 0"></polygon>
        <path d="M0,0 L0,4.75804254 L177.45232,4.75804254 C177.7246,3.46106989 178.373267,2.31467456 179.38831,1.3371266 L179.38831,1.3371266 L179.392314,1.33311121 L179.392314,0 L0,0 Z" id="path-9"></path>
        <linearGradient x1="34.5659794%" y1="49.582568%" x2="71.4539538%" y2="50.580247%" id="linearGradient-11">
            <stop stop-color="#3DDB83" offset="0%"></stop>
            <stop stop-color="#4285F4" offset="100%"></stop>
        </linearGradient>
        <path d="M1.13430683,0.145357306 C0.908675011,0.203982076 0.696456971,0.296536935 0.45821219,0.405956454 L0.45821219,0.405956454 C0.615774075,0.488673595 0.775338016,0.480442035 0.915281799,0.536256028 L0.915281799,0.536256028 C1.06083134,0.594278489 1.20598047,0.65189941 1.34332158,0.727991149 L1.34332158,0.727991149 C1.4810631,0.804283658 1.61039598,0.892421582 1.73332228,0.990597995 L1.73332228,0.990597995 C1.85624858,1.08857364 1.97036583,1.19558392 2.07807649,1.31062499 L2.07807649,1.31062499 C2.18538675,1.42526452 2.28428836,1.54713177 2.37638298,1.6744198 L2.37638298,1.6744198 C2.46867781,1.80210936 2.55216359,1.93481818 2.62764113,2.072747 L2.62764113,2.072747 C2.70311868,2.21067583 2.77158903,2.35201774 2.82844745,2.49878043 L2.82844745,2.49878043 C2.88530587,2.64433851 2.94656881,2.78889273 2.97159452,2.95252009 L2.97159452,2.95252009 C2.995419,2.96557012 3.0234478,2.98123016 3.0516768,2.99668943 L3.0516768,2.99668943 C3.25668744,3.10791588 3.43527092,3.25146626 3.58722705,3.42934827 L3.58722705,3.42934827 C4.00045161,3.91360493 4.00125243,4.56811434 3.58102067,5.04353714 L3.58102067,5.04353714 C3.31094318,5.34930948 2.95958218,5.50831913 2.56617799,5.5842101 L2.56617799,5.5842101 C2.355962,5.62456482 2.14434458,5.62958406 1.93593045,5.61131402 L1.93593045,5.61131402 C1.85825064,5.71511198 1.75414367,5.78016138 1.6672544,5.86388237 L1.6672544,5.86388237 C0.692252651,6.80348485 0.121466206,7.93964092 0.0139557464,9.29824989 L0.0139557464,9.29824989 C-0.0425022605,10.0101795 0.0702135476,10.6929974 0.390943076,11.3356614 L0.390943076,11.3356614 C0.406158709,11.3661784 0.409962617,11.4055293 0.474228646,11.4336371 L0.474228646,11.4336371 C0.504459707,11.2495312 0.510265672,11.0666299 0.564721622,10.8939679 L0.564721622,10.8939679 C0.620378806,10.7182944 0.690851212,10.5496478 0.779542336,10.3882289 L0.779542336,10.3882289 C0.869835106,10.2239992 0.975543714,10.0706112 1.0946661,9.92645846 L1.0946661,9.92645846 C1.21218685,9.78491578 1.34171994,9.65521852 1.4808629,9.53435512 L1.4808629,9.53435512 C1.62240832,9.4116848 1.77536548,9.30567837 1.93633086,9.21131658 L1.93633086,9.21131658 C2.09529418,9.11856095 2.26246594,9.04347306 2.43804634,8.98806061 L2.43804634,8.98806061 C2.615829,8.9316443 2.79801618,8.8965096 2.98440769,8.89189189 L2.98440769,8.89189189 C3.1533813,8.63209582 3.35238576,8.407836 3.60704741,8.23637863 L3.60704741,8.23637863 C4.10355754,7.90209698 4.68375365,7.93903861 5.08476567,8.34459353 L5.08476567,8.34459353 C5.51700977,8.78207083 5.64414039,9.33739999 5.67857577,9.94834237 L5.67857577,9.94834237 C5.79069096,10.1503167 5.9360403,10.3563065 6.11001905,10.5392078 L6.11001905,10.5392078 C7.05458953,11.5334196 8.22779492,11.9755146 9.58118544,11.96648 L9.58118544,11.96648 C10.2624854,11.9618623 10.8991396,11.7749456 11.4949517,11.4456832 L11.4949517,11.4456832 C11.5373953,11.4221932 11.5470052,11.39529 11.5305883,11.372603 L11.5305883,11.372603 C10.8548941,11.2953067 10.3011251,11.0108159 9.83764894,10.5460339 L9.83764894,10.5460339 C9.37217069,10.0796458 9.09888991,9.50825505 8.96194922,8.8533441 L8.96194922,8.8533441 C8.90769347,8.86378413 8.87465953,8.83748329 8.83982374,8.81620169 L8.83982374,8.81620169 C8.63761598,8.69292906 8.46303662,8.53833634 8.32769756,8.34338891 L8.32769756,8.34338891 C8.07824126,7.98421181 7.97453471,7.58909692 8.10226595,7.16286272 L8.10226595,7.16286272 C8.26643462,6.61496205 8.66904828,6.33006976 9.21060469,6.22044947 L9.21060469,6.22044947 C9.42482479,6.17688243 9.64004592,6.18973169 9.84105244,6.22747641 L9.84105244,6.22747641 C9.88569831,6.20739943 9.91673019,6.19053477 9.94976413,6.17868936 L9.94976413,6.17868936 C10.3045286,6.04999594 10.6068392,5.84219924 10.8641036,5.56754621 L10.8641036,5.56754621 C11.4136682,4.98009389 11.6893514,4.26334585 11.8288948,3.48536303 L11.8288948,3.48536303 C11.9007687,3.08442582 11.9191876,2.67867014 11.897165,2.2719106 L11.897165,2.2719106 C11.8639308,1.65695283 11.7398033,1.06187126 11.5083655,0.490681293 L11.5083655,0.490681293 C11.4945513,0.456550434 11.4937505,0.403145678 11.4244793,0.413384935 L11.4244793,0.413384935 C11.4084628,0.46799431 11.3884423,0.523406764 11.3760295,0.580826915 L11.3760295,0.580826915 C11.307359,0.904668538 11.1976462,1.21405474 11.0404848,1.50456858 L11.0404848,1.50456858 C10.592024,2.33354692 9.92033389,2.8276413 8.96194922,2.88686838 L8.96194922,2.88686838 C8.92391013,2.88927761 8.88527043,2.89028146 8.84643053,2.91316921 L8.84643053,2.91316921 C8.8350188,2.93244311 8.82140482,2.95533086 8.80779083,2.97801785 L8.80779083,2.97801785 C8.59517238,3.32856185 8.30707638,3.59056638 7.92168041,3.73893524 L7.92168041,3.73893524 C7.34688985,3.96038428 6.74146782,3.78892691 6.41112842,3.29724177 L6.41112842,3.29724177 C6.15086101,2.91015767 6.1120211,2.48151423 6.220933,2.03540382 L6.220933,2.03540382 C6.2385511,1.96352825 6.24335604,1.89807731 6.21893095,1.82740635 L6.21893095,1.82740635 C6.15946985,1.65394128 6.06917708,1.49874626 5.95345819,1.35800666 L5.95345819,1.35800666 C5.67116816,1.0144896 5.31119831,0.773164345 4.91699329,0.580826915 L4.91699329,0.580826915 C4.17002583,0.216429801 3.37781189,0.0357370172 2.5489603,0.00441693472 L2.5489603,0.00441693472 C2.47428357,0.00140538832 2.39980705,0 2.32533053,0 L2.32533053,0 C1.92331749,0 1.52630959,0.0431654984 1.13430683,0.145357306 M5.22330801,5.98313961 C5.21269711,5.92391253 5.21349793,5.86528776 5.2193039,5.80626145 L5.2193039,5.80626145 C5.24773311,5.5623262 5.4301205,5.36215874 5.68578317,5.29429857 L5.68578317,5.29429857 C6.01952607,5.2057591 6.38269921,5.36416644 6.52604649,5.66130569 L6.52604649,5.66130569 C6.67880344,5.97751806 6.54826932,6.33569131 6.2279402,6.47944246 L6.2279402,6.47944246 C6.13184147,6.52260796 6.0309378,6.54268493 5.93163577,6.54268493 L5.93163577,6.54268493 C5.59849349,6.54268493 5.28336972,6.31701972 5.22330801,5.98313961" id="path-12"></path>
        <linearGradient x1="17.2411909%" y1="68.9157075%" x2="97.1306842%" y2="21.897634%" id="linearGradient-14">
            <stop stop-color="#3DDB83" offset="0%"></stop>
            <stop stop-color="#4285F4" offset="100%"></stop>
        </linearGradient>
    </defs>
    <g id="Brand-Identity" stroke="none" stroke-width="1" fill="none" fill-rule="evenodd">
        <g id="Light-Mode-Splash" transform="translate(-101, -442)">
            <g id="flutterninja-logo" transform="translate(101, 442)">
                <g id="Group-3" transform="translate(0, 0.0002)">
                    <mask id="mask-2" fill="white">
                        <use xlink:href="#path-1"></use>
                    </mask>
                    <g id="Clip-2"></g>
                    <polygon id="Fill-1" fill="url(#linearGradient-3)" mask="url(#mask-2)" points="20.8926658 0 0 20.9800384 5.09943934 30.0739046 0.701921177 34.5793788 4.90423878 42.2297105 24.5880626 22.452283 21.8776779 17.6488665 23.0771102 12.1507866 10.6555479 24.5593616 9.79746625 23.0863139 25.0829711 7.65274093"></polygon>
                </g>
                <g id="Group-6" transform="translate(7.7574, 32.9355)">
                    <mask id="mask-5" fill="white">
                        <use xlink:href="#path-4"></use>
                    </mask>
                    <g id="Clip-5"></g>
                    <polygon id="Fill-4" fill="url(#linearGradient-6)" mask="url(#mask-5)" points="0 8.92923507 3.77167515 8.84109714 6.66284563 14.064524 13.0732319 7.64069475 8.84729 0"></polygon>
                </g>
                <polygon id="Fill-7" fill="#231F20" points="33.1236524 9.94753929 45.4178839 9.94753929 45.4178839 13.409613 37.0532898 13.409613 37.0532898 19.7430959 44.6601053 19.7430959 44.6601053 23.2613851 37.0532898 23.2613851 37.0532898 29.0881251 33.1236524 29.0881251"></polygon>
                <polygon id="Fill-8" fill="#231F20" points="48.7288857 9.94753929 52.6585231 9.94753929 52.6585231 25.6258506 61.3038056 25.6258506 61.3038056 29.0881251 48.7288857 29.0881251"></polygon>
                <g id="Group-26">
                    <path d="M63.6885157,22.1636966 L63.6885157,9.94745898 L67.6181532,9.94745898 L67.6181532,21.9386337 C67.6181532,24.7251172 68.8251933,25.7948184 71.4356754,25.7948184 C74.0179285,25.7948184 75.1967397,24.7251172 75.1967397,21.9386337 L75.1967397,9.94745898 L79.1263771,9.94745898 L79.1263771,22.1636966 C79.1263771,27.0052593 75.7861452,29.3414162 71.4356754,29.3414162 C67.0287476,29.3414162 63.6885157,27.0052593 63.6885157,22.1636966" id="Fill-9" fill="#231F20"></path>
                    <polygon id="Fill-11" fill="#231F20" points="87.3772143 13.4096532 81.9318195 13.4096532 81.9318195 9.94757944 96.7522465 9.94757944 96.7522465 13.4096532 91.3068517 13.4096532 91.3068517 29.0881653 87.3772143 29.0881653"></polygon>
                    <polygon id="Fill-13" fill="#231F20" points="104.273194 13.4096532 98.827799 13.4096532 98.827799 9.94757944 113.648226 9.94757944 113.648226 13.4096532 108.202831 13.4096532 108.202831 29.0881653 104.273194 29.0881653"></polygon>
                    <polygon id="Fill-15" fill="#231F20" points="116.538075 9.94753929 129.169053 9.94753929 129.169053 13.409613 120.467713 13.409613 120.467713 19.4897244 128.130586 19.4897244 128.130586 22.8674749 120.467713 22.8674749 120.467713 25.6258506 129.562056 25.6258506 129.562056 29.0881251 116.538075 29.0881251"></polygon>
                    <path d="M138.37433,20.8971204 C141.574218,20.8971204 142.97766,19.8838355 142.97766,17.1814745 C142.97766,14.4793143 141.518161,13.409613 138.37433,13.409613 L137.139462,13.409613 L137.139462,20.8971204 L138.37433,20.8971204 Z M147.300301,29.0881251 L142.753029,29.0881251 L139.609399,24.2467631 C139.244625,24.3029787 138.851421,24.3310864 138.486646,24.3310864 L137.139462,24.3310864 L137.139462,29.0881251 L133.209624,29.0881251 L133.209624,9.94753929 L138.486646,9.94753929 C143.819925,9.94753929 147.019813,12.5089599 147.019813,17.1814745 C147.019813,20.1651139 145.700458,22.051145 143.342835,23.1206455 L147.300301,29.0881251 Z" id="Fill-17" fill="#231F20"></path>
                    <path d="M154.119868,15.7741186 C153.58672,15.1266362 152.800512,14.0007194 152.800512,14.0007194 C152.800512,14.0007194 152.969086,15.3518998 152.969086,16.1682297 L152.969086,29.0881653 L151.060525,29.0881653 L151.060525,9.75042354 L151.39707,9.75042354 L162.793179,23.2614253 C163.326527,23.9089078 164.112535,25.0348246 164.112535,25.0348246 C164.112535,25.0348246 163.97199,23.6836441 163.97199,22.8673143 L163.97199,9.94757944 L165.852923,9.94757944 L165.852923,29.2851204 L165.515977,29.2851204 L154.119868,15.7741186 Z" id="Fill-19" fill="#231F20"></path>
                    <mask id="mask-8" fill="white">
                        <use xlink:href="#path-7"></use>
                    </mask>
                    <g id="Clip-22"></g>
                    <polygon id="Fill-21" fill="#231F20" mask="url(#mask-8)" points="171.156252 29.0881251 173.205157 29.0881251 173.205157 9.94753929 171.156252 9.94753929"></polygon>
                    <path d="M181.569431,15.7741186 C181.036283,15.1266362 180.250075,14.0007194 180.250075,14.0007194 C180.250075,14.0007194 180.418648,15.3518998 180.418648,16.1682297 L180.418648,29.0881653 L178.510087,29.0881653 L178.510087,9.75042354 L178.846633,9.75042354 L190.242742,23.2614253 C190.77609,23.9089078 191.562097,25.0348246 191.562097,25.0348246 C191.562097,25.0348246 191.421553,23.6836441 191.421553,22.8673143 L191.421553,9.94757944 L193.302485,9.94757944 L193.302485,29.2851204 L192.965539,29.2851204 L181.569431,15.7741186 Z" id="Fill-23" fill="#231F20" mask="url(#mask-8)"></path>
                    <path d="M196.837598,26.4422608 L198.493499,25.400868 C199.223449,26.6673237 200.205858,27.4836535 201.693387,27.4836535 C203.573919,27.4836535 204.837217,26.4422608 204.837217,23.993472 L204.837217,9.9476196 L206.886122,9.9476196 L206.886122,24.0496875 C206.886122,27.5681776 204.724901,29.3132683 201.777673,29.3132683 C199.223449,29.3132683 197.707692,28.0466119 196.837598,26.4422608" id="Fill-24" fill="#231F20" mask="url(#mask-8)"></path>
                    <path d="M221.845852,24.1341112 L218.477391,15.6333188 C218.112616,14.7326657 217.747841,13.3533774 217.747841,13.3533774 C217.747841,13.3533774 217.354838,14.7326657 216.989662,15.6333188 L213.621602,24.1341112 L221.845852,24.1341112 Z M217.579068,9.75036331 L217.916014,9.75036331 L225.99992,29.088105 L223.866728,29.088105 L222.575401,25.879202 L212.919881,25.879202 L211.656783,29.088105 L209.663936,29.088105 L217.579068,9.75036331 Z" id="Fill-25" fill="#231F20" mask="url(#mask-8)"></path>
                </g>
                <g id="Group-29" transform="translate(33.1244, 34.9685)">
                    <mask id="mask-10" fill="white">
                        <use xlink:href="#path-9"></use>
                    </mask>
                    <g id="Clip-28"></g>
                    <path d="M0,0 L0,4.75804254 L177.45232,4.75804254 C177.7246,3.46106989 178.373267,2.31467456 179.38831,1.3371266 L179.38831,1.3371266 L179.392314,1.33311121 L179.392314,0 L0,0 Z" id="Fill-27" fill="url(#linearGradient-11)" mask="url(#mask-10)"></path>
                </g>
                <g id="Group-32" transform="translate(211.7718, 31.408)">
                    <mask id="mask-13" fill="white">
                        <use xlink:href="#path-12"></use>
                    </mask>
                    <g id="Clip-31"></g>
                    <path d="M1.13430683,0.145357306 C0.908675011,0.203982076 0.696456971,0.296536935 0.45821219,0.405956454 L0.45821219,0.405956454 C0.615774075,0.488673595 0.775338016,0.480442035 0.915281799,0.536256028 L0.915281799,0.536256028 C1.06083134,0.594278489 1.20598047,0.65189941 1.34332158,0.727991149 L1.34332158,0.727991149 C1.4810631,0.804283658 1.61039598,0.892421582 1.73332228,0.990597995 L1.73332228,0.990597995 C1.85624858,1.08857364 1.97036583,1.19558392 2.07807649,1.31062499 L2.07807649,1.31062499 C2.18538675,1.42526452 2.28428836,1.54713177 2.37638298,1.6744198 L2.37638298,1.6744198 C2.46867781,1.80210936 2.55216359,1.93481818 2.62764113,2.072747 L2.62764113,2.072747 C2.70311868,2.21067583 2.77158903,2.35201774 2.82844745,2.49878043 L2.82844745,2.49878043 C2.88530587,2.64433851 2.94656881,2.78889273 2.97159452,2.95252009 L2.97159452,2.95252009 C2.995419,2.96557012 3.0234478,2.98123016 3.0516768,2.99668943 L3.0516768,2.99668943 C3.25668744,3.10791588 3.43527092,3.25146626 3.58722705,3.42934827 L3.58722705,3.42934827 C4.00045161,3.91360493 4.00125243,4.56811434 3.58102067,5.04353714 L3.58102067,5.04353714 C3.31094318,5.34930948 2.95958218,5.50831913 2.56617799,5.5842101 L2.56617799,5.5842101 C2.355962,5.62456482 2.14434458,5.62958406 1.93593045,5.61131402 L1.93593045,5.61131402 C1.85825064,5.71511198 1.75414367,5.78016138 1.6672544,5.86388237 L1.6672544,5.86388237 C0.692252651,6.80348485 0.121466206,7.93964092 0.0139557464,9.29824989 L0.0139557464,9.29824989 C-0.0425022605,10.0101795 0.0702135476,10.6929974 0.390943076,11.3356614 L0.390943076,11.3356614 C0.406158709,11.3661784 0.409962617,11.4055293 0.474228646,11.4336371 L0.474228646,11.4336371 C0.504459707,11.2495312 0.510265672,11.0666299 0.564721622,10.8939679 L0.564721622,10.8939679 C0.620378806,10.7182944 0.690851212,10.5496478 0.779542336,10.3882289 L0.779542336,10.3882289 C0.869835106,10.2239992 0.975543714,10.0706112 1.0946661,9.92645846 L1.0946661,9.92645846 C1.21218685,9.78491578 1.34171994,9.65521852 1.4808629,9.53435512 L1.4808629,9.53435512 C1.62240832,9.4116848 1.77536548,9.30567837 1.93633086,9.21131658 L1.93633086,9.21131658 C2.09529418,9.11856095 2.26246594,9.04347306 2.43804634,8.98806061 L2.43804634,8.98806061 C2.615829,8.9316443 2.79801618,8.8965096 2.98440769,8.89189189 L2.98440769,8.89189189 C3.1533813,8.63209582 3.35238576,8.407836 3.60704741,8.23637863 L3.60704741,8.23637863 C4.10355754,7.90209698 4.68375365,7.93903861 5.08476567,8.34459353 L5.08476567,8.34459353 C5.51700977,8.78207083 5.64414039,9.33739999 5.67857577,9.94834237 L5.67857577,9.94834237 C5.79069096,10.1503167 5.9360403,10.3563065 6.11001905,10.5392078 L6.11001905,10.5392078 C7.05458953,11.5334196 8.22779492,11.9755146 9.58118544,11.96648 L9.58118544,11.96648 C10.2624854,11.9618623 10.8991396,11.7749456 11.4949517,11.4456832 L11.4949517,11.4456832 C11.5373953,11.4221932 11.5470052,11.39529 11.5305883,11.372603 L11.5305883,11.372603 C10.8548941,11.2953067 10.3011251,11.0108159 9.83764894,10.5460339 L9.83764894,10.5460339 C9.37217069,10.0796458 9.09888991,9.50825505 8.96194922,8.8533441 L8.96194922,8.8533441 C8.90769347,8.86378413 8.87465953,8.83748329 8.83982374,8.81620169 L8.83982374,8.81620169 C8.63761598,8.69292906 8.46303662,8.53833634 8.32769756,8.34338891 L8.32769756,8.34338891 C8.07824126,7.98421181 7.97453471,7.58909692 8.10226595,7.16286272 L8.10226595,7.16286272 C8.26643462,6.61496205 8.66904828,6.33006976 9.21060469,6.22044947 L9.21060469,6.22044947 C9.42482479,6.17688243 9.64004592,6.18973169 9.84105244,6.22747641 L9.84105244,6.22747641 C9.88569831,6.20739943 9.91673019,6.19053477 9.94976413,6.17868936 L9.94976413,6.17868936 C10.3045286,6.04999594 10.6068392,5.84219924 10.8641036,5.56754621 L10.8641036,5.56754621 C11.4136682,4.98009389 11.6893514,4.26334585 11.8288948,3.48536303 L11.8288948,3.48536303 C11.9007687,3.08442582 11.9191876,2.67867014 11.897165,2.2719106 L11.897165,2.2719106 C11.8639308,1.65695283 11.7398033,1.06187126 11.5083655,0.490681293 L11.5083655,0.490681293 C11.4945513,0.456550434 11.4937505,0.403145678 11.4244793,0.413384935 L11.4244793,0.413384935 C11.4084628,0.46799431 11.3884423,0.523406764 11.3760295,0.580826915 L11.3760295,0.580826915 C11.307359,0.904668538 11.1976462,1.21405474 11.0404848,1.50456858 L11.0404848,1.50456858 C10.592024,2.33354692 9.92033389,2.8276413 8.96194922,2.88686838 L8.96194922,2.88686838 C8.92391013,2.88927761 8.88527043,2.89028146 8.84643053,2.91316921 L8.84643053,2.91316921 C8.8350188,2.93244311 8.82140482,2.95533086 8.80779083,2.97801785 L8.80779083,2.97801785 C8.59517238,3.32856185 8.30707638,3.59056638 7.92168041,3.73893524 L7.92168041,3.73893524 C7.34688985,3.96038428 6.74146782,3.78892691 6.41112842,3.29724177 L6.41112842,3.29724177 C6.15086101,2.91015767 6.1120211,2.48151423 6.220933,2.03540382 L6.220933,2.03540382 C6.2385511,1.96352825 6.24335604,1.89807731 6.21893095,1.82740635 L6.21893095,1.82740635 C6.15946985,1.65394128 6.06917708,1.49874626 5.95345819,1.35800666 L5.95345819,1.35800666 C5.67116816,1.0144896 5.31119831,0.773164345 4.91699329,0.580826915 L4.91699329,0.580826915 C4.17002583,0.216429801 3.37781189,0.0357370172 2.5489603,0.00441693472 L2.5489603,0.00441693472 C2.47428357,0.00140538832 2.39980705,0 2.32533053,0 L2.32533053,0 C1.92331749,0 1.52630959,0.0431654984 1.13430683,0.145357306 M5.22330801,5.98313961 C5.21269711,5.92391253 5.21349793,5.86528776 5.2193039,5.80626145 L5.2193039,5.80626145 C5.24773311,5.5623262 5.4301205,5.36215874 5.68578317,5.29429857 L5.68578317,5.29429857 C6.01952607,5.2057591 6.38269921,5.36416644 6.52604649,5.66130569 L6.52604649,5.66130569 C6.67880344,5.97751806 6.54826932,6.33569131 6.2279402,6.47944246 L6.2279402,6.47944246 C6.13184147,6.52260796 6.0309378,6.54268493 5.93163577,6.54268493 L5.93163577,6.54268493 C5.59849349,6.54268493 5.28336972,6.31701972 5.22330801,5.98313961" id="Fill-30" fill="url(#linearGradient-14)" mask="url(#mask-13)"></path>
                </g>
            </g>
        </g>
    </g>
</svg>